<svg id="layered-waves" preserveAspectRatio="none" viewBox="0 0 1920 1080" fill="none" xmlns="http://www.w3.org/2000/svg">
    <g id="layered-waves 1" clip-path="url(#clip0_2_2)">
        <path  id="background" d="M1920 0H0V1080H1920V0Z" fill="black"/>
        <path style="animation-delay: 150ms;" id="sixth_wave" d="M0 701L18.8 706.7C37.7 712.3 75.3 723.7 113 723.5C150.7 723.3 188.3 711.7 226 706.5C263.7 701.3 301.3 702.7 339 699.2C376.7 695.7 414.3 687.3 452 682.3C489.7 677.3 527.3 675.7 565 682.2C602.7 688.7 640.3 703.3 678 705.3C715.7 707.3 753.3 696.7 791 696.5C828.7 696.3 866.3 706.7 903.8 709.2C941.3 711.7 978.7 706.3 1016.2 702.8C1053.7 699.3 1091.3 697.7 1129 694.5C1166.7 691.3 1204.3 686.7 1242 688.2C1279.7 689.7 1317.3 697.3 1355 702.8C1392.7 708.3 1430.3 711.7 1468 713.3C1505.7 715 1543.3 715 1581 717.5C1618.7 720 1656.3 725 1694 717.8C1731.7 710.7 1769.3 691.3 1807 683.8C1844.7 676.3 1882.3 680.7 1901.2 682.8L1920 685V1081H1901.2C1882.3 1081 1844.7 1081 1807 1081C1769.3 1081 1731.7 1081 1694 1081C1656.3 1081 1618.7 1081 1581 1081C1543.3 1081 1505.7 1081 1468 1081C1430.3 1081 1392.7 1081 1355 1081C1317.3 1081 1279.7 1081 1242 1081C1204.3 1081 1166.7 1081 1129 1081C1091.3 1081 1053.7 1081 1016.2 1081C978.7 1081 941.3 1081 903.8 1081C866.3 1081 828.7 1081 791 1081C753.3 1081 715.7 1081 678 1081C640.3 1081 602.7 1081 565 1081C527.3 1081 489.7 1081 452 1081C414.3 1081 376.7 1081 339 1081C301.3 1081 263.7 1081 226 1081C188.3 1081 150.7 1081 113 1081C75.3 1081 37.7 1081 18.8 1081H0V701Z" fill="black"/>
        <path style="animation-delay: 300ms;" id="fifth_wave" d="M0 807L18.8 804.3C37.7 801.7 75.3 796.3 113 791.3C150.7 786.3 188.3 781.7 226 782.8C263.7 784 301.3 791 339 793.5C376.7 796 414.3 794 452 794.2C489.7 794.3 527.3 796.7 565 789.7C602.7 782.7 640.3 766.3 678 757.3C715.7 748.3 753.3 746.7 791 747.8C828.7 749 866.3 753 903.8 762.8C941.3 772.7 978.7 788.3 1016.2 790.5C1053.7 792.7 1091.3 781.3 1129 779.8C1166.7 778.3 1204.3 786.7 1242 792.5C1279.7 798.3 1317.3 801.7 1355 798C1392.7 794.3 1430.3 783.7 1468 778.5C1505.7 773.3 1543.3 773.7 1581 772.3C1618.7 771 1656.3 768 1694 770.2C1731.7 772.3 1769.3 779.7 1807 777.8C1844.7 776 1882.3 765 1901.2 759.5L1920 754V1081H1901.2C1882.3 1081 1844.7 1081 1807 1081C1769.3 1081 1731.7 1081 1694 1081C1656.3 1081 1618.7 1081 1581 1081C1543.3 1081 1505.7 1081 1468 1081C1430.3 1081 1392.7 1081 1355 1081C1317.3 1081 1279.7 1081 1242 1081C1204.3 1081 1166.7 1081 1129 1081C1091.3 1081 1053.7 1081 1016.2 1081C978.7 1081 941.3 1081 903.8 1081C866.3 1081 828.7 1081 791 1081C753.3 1081 715.7 1081 678 1081C640.3 1081 602.7 1081 565 1081C527.3 1081 489.7 1081 452 1081C414.3 1081 376.7 1081 339 1081C301.3 1081 263.7 1081 226 1081C188.3 1081 150.7 1081 113 1081C75.3 1081 37.7 1081 18.8 1081H0V807Z" fill="#1E0055"/>
        <path style="animation-delay: 450ms;" id="fourth_wave" d="M0 844L18.8 839.3C37.7 834.7 75.3 825.3 113 826.3C150.7 827.3 188.3 838.7 226 841.7C263.7 844.7 301.3 839.3 339 835.3C376.7 831.3 414.3 828.7 452 832.7C489.7 836.7 527.3 847.3 565 848.2C602.7 849 640.3 840 678 831.2C715.7 822.3 753.3 813.7 791 819.8C828.7 826 866.3 847 903.8 851C941.3 855 978.7 842 1016.2 840.2C1053.7 838.3 1091.3 847.7 1129 846.2C1166.7 844.7 1204.3 832.3 1242 826.5C1279.7 820.7 1317.3 821.3 1355 817.5C1392.7 813.7 1430.3 805.3 1468 808.5C1505.7 811.7 1543.3 826.3 1581 827.7C1618.7 829 1656.3 817 1694 816C1731.7 815 1769.3 825 1807 824C1844.7 823 1882.3 811 1901.2 805L1920 799V1081H1901.2C1882.3 1081 1844.7 1081 1807 1081C1769.3 1081 1731.7 1081 1694 1081C1656.3 1081 1618.7 1081 1581 1081C1543.3 1081 1505.7 1081 1468 1081C1430.3 1081 1392.7 1081 1355 1081C1317.3 1081 1279.7 1081 1242 1081C1204.3 1081 1166.7 1081 1129 1081C1091.3 1081 1053.7 1081 1016.2 1081C978.7 1081 941.3 1081 903.8 1081C866.3 1081 828.7 1081 791 1081C753.3 1081 715.7 1081 678 1081C640.3 1081 602.7 1081 565 1081C527.3 1081 489.7 1081 452 1081C414.3 1081 376.7 1081 339 1081C301.3 1081 263.7 1081 226 1081C188.3 1081 150.7 1081 113 1081C75.3 1081 37.7 1081 18.8 1081H0V844Z" fill="#310066"/>
        <path style="animation-delay: 600ms;" id="third_wave" d="M0 893L18.8 889.3C37.7 885.7 75.3 878.3 113 875.3C150.7 872.3 188.3 873.7 226 878C263.7 882.3 301.3 889.7 339 895.3C376.7 901 414.3 905 452 903.5C489.7 902 527.3 895 565 893.8C602.7 892.7 640.3 897.3 678 902.8C715.7 908.3 753.3 914.7 791 912.7C828.7 910.7 866.3 900.3 903.8 897.2C941.3 894 978.7 898 1016.2 899.7C1053.7 901.3 1091.3 900.7 1129 897.5C1166.7 894.3 1204.3 888.7 1242 891.8C1279.7 895 1317.3 907 1355 908.8C1392.7 910.7 1430.3 902.3 1468 895.8C1505.7 889.3 1543.3 884.7 1581 885.3C1618.7 886 1656.3 892 1694 888.3C1731.7 884.7 1769.3 871.3 1807 871.7C1844.7 872 1882.3 886 1901.2 893L1920 900V1081H1901.2C1882.3 1081 1844.7 1081 1807 1081C1769.3 1081 1731.7 1081 1694 1081C1656.3 1081 1618.7 1081 1581 1081C1543.3 1081 1505.7 1081 1468 1081C1430.3 1081 1392.7 1081 1355 1081C1317.3 1081 1279.7 1081 1242 1081C1204.3 1081 1166.7 1081 1129 1081C1091.3 1081 1053.7 1081 1016.2 1081C978.7 1081 941.3 1081 903.8 1081C866.3 1081 828.7 1081 791 1081C753.3 1081 715.7 1081 678 1081C640.3 1081 602.7 1081 565 1081C527.3 1081 489.7 1081 452 1081C414.3 1081 376.7 1081 339 1081C301.3 1081 263.7 1081 226 1081C188.3 1081 150.7 1081 113 1081C75.3 1081 37.7 1081 18.8 1081H0V893Z" fill="#431276"/>
        <path style="animation-delay: 750ms;" id="second_wave" d="M0 987L18.8 976.8C37.7 966.7 75.3 946.3 113 942.5C150.7 938.7 188.3 951.3 226 952.5C263.7 953.7 301.3 943.3 339 942C376.7 940.7 414.3 948.3 452 951.8C489.7 955.3 527.3 954.7 565 950C602.7 945.3 640.3 936.7 678 942.7C715.7 948.7 753.3 969.3 791 970.7C828.7 972 866.3 954 903.8 951.8C941.3 949.7 978.7 963.3 1016.2 963.8C1053.7 964.3 1091.3 951.7 1129 942.8C1166.7 934 1204.3 929 1242 934.2C1279.7 939.3 1317.3 954.7 1355 959.2C1392.7 963.7 1430.3 957.3 1468 951C1505.7 944.7 1543.3 938.3 1581 934.7C1618.7 931 1656.3 930 1694 940C1731.7 950 1769.3 971 1807 972.7C1844.7 974.3 1882.3 956.7 1901.2 947.8L1920 939V1081H1901.2C1882.3 1081 1844.7 1081 1807 1081C1769.3 1081 1731.7 1081 1694 1081C1656.3 1081 1618.7 1081 1581 1081C1543.3 1081 1505.7 1081 1468 1081C1430.3 1081 1392.7 1081 1355 1081C1317.3 1081 1279.7 1081 1242 1081C1204.3 1081 1166.7 1081 1129 1081C1091.3 1081 1053.7 1081 1016.2 1081C978.7 1081 941.3 1081 903.8 1081C866.3 1081 828.7 1081 791 1081C753.3 1081 715.7 1081 678 1081C640.3 1081 602.7 1081 565 1081C527.3 1081 489.7 1081 452 1081C414.3 1081 376.7 1081 339 1081C301.3 1081 263.7 1081 226 1081C188.3 1081 150.7 1081 113 1081C75.3 1081 37.7 1081 18.8 1081H0V987Z" fill="#542388"/>
        <path style="animation-delay: 900ms;" id="first_wave" d="M0 1026L18.8 1028.7C37.7 1031.3 75.3 1036.7 113 1031.8C150.7 1027 188.3 1012 226 1003.2C263.7 994.3 301.3 991.7 339 998C376.7 1004.3 414.3 1019.7 452 1021C489.7 1022.3 527.3 1009.7 565 1011C602.7 1012.3 640.3 1027.7 678 1035C715.7 1042.3 753.3 1041.7 791 1042.8C828.7 1044 866.3 1047 903.8 1044.8C941.3 1042.7 978.7 1035.3 1016.2 1025.5C1053.7 1015.7 1091.3 1003.3 1129 1000.5C1166.7 997.7 1204.3 1004.3 1242 1009C1279.7 1013.7 1317.3 1016.3 1355 1020C1392.7 1023.7 1430.3 1028.3 1468 1031.8C1505.7 1035.3 1543.3 1037.7 1581 1034.8C1618.7 1032 1656.3 1024 1694 1019.5C1731.7 1015 1769.3 1014 1807 1012C1844.7 1010 1882.3 1007 1901.2 1005.5L1920 1004V1081H1901.2C1882.3 1081 1844.7 1081 1807 1081C1769.3 1081 1731.7 1081 1694 1081C1656.3 1081 1618.7 1081 1581 1081C1543.3 1081 1505.7 1081 1468 1081C1430.3 1081 1392.7 1081 1355 1081C1317.3 1081 1279.7 1081 1242 1081C1204.3 1081 1166.7 1081 1129 1081C1091.3 1081 1053.7 1081 1016.2 1081C978.7 1081 941.3 1081 903.8 1081C866.3 1081 828.7 1081 791 1081C753.3 1081 715.7 1081 678 1081C640.3 1081 602.7 1081 565 1081C527.3 1081 489.7 1081 452 1081C414.3 1081 376.7 1081 339 1081C301.3 1081 263.7 1081 226 1081C188.3 1081 150.7 1081 113 1081C75.3 1081 37.7 1081 18.8 1081H0V1026Z" fill="#663399"/>
    </g>
    <defs>
    <clipPath id="clip0_2_2">
    <rect width="1920" height="1080" fill="white"/>
    </clipPath>
    </defs>
</svg>
