<svg id="visual" viewBox="0 0 960 540" width="960" height="540" xmlns="http://www.w3.org/2000/svg" xmlns:xlink="http://www.w3.org/1999/xlink" version="1.1"><rect x="0" y="0" width="960" height="540" fill="#001220"></rect><defs><linearGradient id="grad1_0" x1="43.8%" y1="0%" x2="100%" y2="100%"><stop offset="14.444444444444446%" stop-color="#001220" stop-opacity="1"></stop><stop offset="85.55555555555554%" stop-color="#001220" stop-opacity="1"></stop></linearGradient></defs><defs><linearGradient id="grad2_0" x1="0%" y1="0%" x2="56.3%" y2="100%"><stop offset="14.444444444444446%" stop-color="#001220" stop-opacity="1"></stop><stop offset="85.55555555555554%" stop-color="#001220" stop-opacity="1"></stop></linearGradient></defs><g transform="translate(960, 0)"><path d="M0 216C-24.6 205.9 -49.1 195.7 -77.7 187.5C-106.3 179.4 -138.9 173.1 -152.7 152.7C-166.6 132.4 -161.7 97.8 -169.1 70C-176.5 42.2 -196.2 21.1 -216 0L0 0Z" fill="#663399"></path></g><g transform="translate(0, 540)"><path d="M0 -216C21.8 -199 43.6 -182 72.3 -174.6C101 -167.2 136.6 -169.5 152.7 -152.7C168.8 -136 165.5 -100.2 172.8 -71.6C180.1 -42.9 198 -21.5 216 0L0 0Z" fill="#663399"></path></g></svg>