<svg viewBox="0 0 1920 1080" fill="none" xmlns="http://www.w3.org/2000/svg">
    <g id="circle-scatter 1" clip-path="url(#clip0_2_2)">
    <path id="Vector" d="M1920 0H0V1080H1920V0Z" fill="black"/>
    <path id="circle_4" d="M1080 1004C1176.1 1004 1254 926.098 1254 830C1254 733.902 1176.1 656 1080 656C983.902 656 906 733.902 906 830C906 926.098 983.902 1004 1080 1004Z" fill="#663399"/>
    <path id="circle_3" d="M790 438C826.451 438 856 408.451 856 372C856 335.549 826.451 306 790 306C753.549 306 724 335.549 724 372C724 408.451 753.549 438 790 438Z" fill="#663399"/>
    <path id="circle_2" d="M1591 557C1667.77 557 1730 494.768 1730 418C1730 341.232 1667.77 279 1591 279C1514.23 279 1452 341.232 1452 418C1452 494.768 1514.23 557 1591 557Z" fill="#663399"/>
    <path id="circle_1" d="M208 838C255.496 838 294 799.496 294 752C294 704.504 255.496 666 208 666C160.504 666 122 704.504 122 752C122 799.496 160.504 838 208 838Z" fill="#663399"/>
    </g>
    <defs>
    <clipPath id="clip0_2_2">
    <rect width="1920" height="1080" fill="white"/>
    </clipPath>
    </defs>
</svg>
