<svg preserverAspectRation="none" id="visual" viewBox="0 0 1920 1080" xmlns="http://www.w3.org/2000/svg" xmlns:xlink="http://www.w3.org/1999/xlink" version="1.1"><rect x="0" y="0" width="1920" height="1080" fill="#000000"></rect><defs><linearGradient id="grad1_0" x1="43.8%" y1="0%" x2="100%" y2="100%"><stop offset="14.444444444444446%" stop-color="#000000" stop-opacity="1"></stop><stop offset="85.55555555555554%" stop-color="#000000" stop-opacity="1"></stop></linearGradient></defs><defs><linearGradient id="grad2_0" x1="0%" y1="0%" x2="56.3%" y2="100%"><stop offset="14.444444444444446%" stop-color="#000000" stop-opacity="1"></stop><stop offset="85.55555555555554%" stop-color="#000000" stop-opacity="1"></stop></linearGradient></defs><g transform="translate(1920, 0)"><path d="M0 378C-42.2 357.8 -84.4 337.6 -133.9 323.4C-183.5 309.1 -240.3 300.8 -267.3 267.3C-294.3 233.8 -291.4 175 -304.9 126.3C-318.4 77.5 -348.2 38.8 -378 0L0 0Z" fill="#663399"></path></g><g transform="translate(0, 1080)"><path d="M0 -378C48.4 -370.2 96.8 -362.4 143.1 -345.5C189.4 -328.6 233.6 -302.6 267.3 -267.3C301 -232 324.2 -187.3 340.9 -141.2C357.6 -95.1 367.8 -47.6 378 0L0 0Z" fill="#663399"></path></g></svg>
