<svg id="visual" viewBox="0 0 900 100" width="900" height="100" xmlns="http://www.w3.org/2000/svg" xmlns:xlink="http://www.w3.org/1999/xlink" version="1.1"><rect x="0" y="0" width="900" height="100" fill="#000000"></rect><path d="M0 51L6.5 48.7C13 46.3 26 41.7 39 39.5C52 37.3 65 37.7 78 38C91 38.3 104 38.7 117.2 41.2C130.3 43.7 143.7 48.3 156.8 49.7C170 51 183 49 196 46.3C209 43.7 222 40.3 235 39.7C248 39 261 41 274 43.3C287 45.7 300 48.3 313 50.7C326 53 339 55 352 54.7C365 54.3 378 51.7 391 50.7C404 49.7 417 50.3 430.2 51.7C443.3 53 456.7 55 469.8 52.2C483 49.3 496 41.7 509 42.3C522 43 535 52 548 54.5C561 57 574 53 587 53.2C600 53.3 613 57.7 626 57.3C639 57 652 52 665 51C678 50 691 53 704 52C717 51 730 46 743.2 46.5C756.3 47 769.7 53 782.8 56.5C796 60 809 61 822 58C835 55 848 48 861 44C874 40 887 39 893.5 38.5L900 38L900 101L893.5 101C887 101 874 101 861 101C848 101 835 101 822 101C809 101 796 101 782.8 101C769.7 101 756.3 101 743.2 101C730 101 717 101 704 101C691 101 678 101 665 101C652 101 639 101 626 101C613 101 600 101 587 101C574 101 561 101 548 101C535 101 522 101 509 101C496 101 483 101 469.8 101C456.7 101 443.3 101 430.2 101C417 101 404 101 391 101C378 101 365 101 352 101C339 101 326 101 313 101C300 101 287 101 274 101C261 101 248 101 235 101C222 101 209 101 196 101C183 101 170 101 156.8 101C143.7 101 130.3 101 117.2 101C104 101 91 101 78 101C65 101 52 101 39 101C26 101 13 101 6.5 101L0 101Z" fill="#000000"></path><path d="M0 63L6.5 62C13 61 26 59 39 55.2C52 51.3 65 45.7 78 46.7C91 47.7 104 55.3 117.2 57.2C130.3 59 143.7 55 156.8 51.3C170 47.7 183 44.3 196 44C209 43.7 222 46.3 235 48.3C248 50.3 261 51.7 274 52.3C287 53 300 53 313 55C326 57 339 61 352 59C365 57 378 49 391 44.8C404 40.7 417 40.3 430.2 43.7C443.3 47 456.7 54 469.8 58.3C483 62.7 496 64.3 509 61.7C522 59 535 52 548 51C561 50 574 55 587 57C600 59 613 58 626 56.3C639 54.7 652 52.3 665 52.5C678 52.7 691 55.3 704 56.2C717 57 730 56 743.2 56.2C756.3 56.3 769.7 57.7 782.8 55.5C796 53.3 809 47.7 822 47.5C835 47.3 848 52.7 861 54.5C874 56.3 887 54.7 893.5 53.8L900 53L900 101L893.5 101C887 101 874 101 861 101C848 101 835 101 822 101C809 101 796 101 782.8 101C769.7 101 756.3 101 743.2 101C730 101 717 101 704 101C691 101 678 101 665 101C652 101 639 101 626 101C613 101 600 101 587 101C574 101 561 101 548 101C535 101 522 101 509 101C496 101 483 101 469.8 101C456.7 101 443.3 101 430.2 101C417 101 404 101 391 101C378 101 365 101 352 101C339 101 326 101 313 101C300 101 287 101 274 101C261 101 248 101 235 101C222 101 209 101 196 101C183 101 170 101 156.8 101C143.7 101 130.3 101 117.2 101C104 101 91 101 78 101C65 101 52 101 39 101C26 101 13 101 6.5 101L0 101Z" fill="#17004d"></path><path d="M0 59L6.5 57.3C13 55.7 26 52.3 39 52.3C52 52.3 65 55.7 78 59C91 62.3 104 65.7 117.2 67.5C130.3 69.3 143.7 69.7 156.8 69.2C170 68.7 183 67.3 196 66.5C209 65.7 222 65.3 235 64.5C248 63.7 261 62.3 274 61.3C287 60.3 300 59.7 313 59C326 58.3 339 57.7 352 56.8C365 56 378 55 391 53.7C404 52.3 417 50.7 430.2 49.7C443.3 48.7 456.7 48.3 469.8 48.3C483 48.3 496 48.7 509 48.5C522 48.3 535 47.7 548 47.3C561 47 574 47 587 50C600 53 613 59 626 61.7C639 64.3 652 63.7 665 61.7C678 59.7 691 56.3 704 57.3C717 58.3 730 63.7 743.2 65.7C756.3 67.7 769.7 66.3 782.8 65.3C796 64.3 809 63.7 822 63.3C835 63 848 63 861 62.8C874 62.7 887 62.3 893.5 62.2L900 62L900 101L893.5 101C887 101 874 101 861 101C848 101 835 101 822 101C809 101 796 101 782.8 101C769.7 101 756.3 101 743.2 101C730 101 717 101 704 101C691 101 678 101 665 101C652 101 639 101 626 101C613 101 600 101 587 101C574 101 561 101 548 101C535 101 522 101 509 101C496 101 483 101 469.8 101C456.7 101 443.3 101 430.2 101C417 101 404 101 391 101C378 101 365 101 352 101C339 101 326 101 313 101C300 101 287 101 274 101C261 101 248 101 235 101C222 101 209 101 196 101C183 101 170 101 156.8 101C143.7 101 130.3 101 117.2 101C104 101 91 101 78 101C65 101 52 101 39 101C26 101 13 101 6.5 101L0 101Z" fill="#1e0055"></path><path d="M0 56L6.5 55.8C13 55.7 26 55.3 39 57C52 58.7 65 62.3 78 64.5C91 66.7 104 67.3 117.2 66.5C130.3 65.7 143.7 63.3 156.8 63.3C170 63.3 183 65.7 196 66C209 66.3 222 64.7 235 62C248 59.3 261 55.7 274 56.3C287 57 300 62 313 65.3C326 68.7 339 70.3 352 68.7C365 67 378 62 391 58.7C404 55.3 417 53.7 430.2 53.3C443.3 53 456.7 54 469.8 56.7C483 59.3 496 63.7 509 65.3C522 67 535 66 548 64.2C561 62.3 574 59.7 587 57.5C600 55.3 613 53.7 626 54.2C639 54.7 652 57.3 665 58.7C678 60 691 60 704 61.2C717 62.3 730 64.7 743.2 64.2C756.3 63.7 769.7 60.3 782.8 58.2C796 56 809 55 822 56.8C835 58.7 848 63.3 861 64.8C874 66.3 887 64.7 893.5 63.8L900 63L900 101L893.5 101C887 101 874 101 861 101C848 101 835 101 822 101C809 101 796 101 782.8 101C769.7 101 756.3 101 743.2 101C730 101 717 101 704 101C691 101 678 101 665 101C652 101 639 101 626 101C613 101 600 101 587 101C574 101 561 101 548 101C535 101 522 101 509 101C496 101 483 101 469.8 101C456.7 101 443.3 101 430.2 101C417 101 404 101 391 101C378 101 365 101 352 101C339 101 326 101 313 101C300 101 287 101 274 101C261 101 248 101 235 101C222 101 209 101 196 101C183 101 170 101 156.8 101C143.7 101 130.3 101 117.2 101C104 101 91 101 78 101C65 101 52 101 39 101C26 101 13 101 6.5 101L0 101Z" fill="#28005d"></path><path d="M0 56L6.5 57.2C13 58.3 26 60.7 39 62.8C52 65 65 67 78 68.8C91 70.7 104 72.3 117.2 71.7C130.3 71 143.7 68 156.8 66.3C170 64.7 183 64.3 196 65.8C209 67.3 222 70.7 235 72.3C248 74 261 74 274 72.7C287 71.3 300 68.7 313 66.3C326 64 339 62 352 63.5C365 65 378 70 391 71.3C404 72.7 417 70.3 430.2 70C443.3 69.7 456.7 71.3 469.8 70C483 68.7 496 64.3 509 64C522 63.7 535 67.3 548 67.2C561 67 574 63 587 63.2C600 63.3 613 67.7 626 67.8C639 68 652 64 665 64.3C678 64.7 691 69.3 704 69.8C717 70.3 730 66.7 743.2 64.8C756.3 63 769.7 63 782.8 61.8C796 60.7 809 58.3 822 58.2C835 58 848 60 861 63C874 66 887 70 893.5 72L900 74L900 101L893.5 101C887 101 874 101 861 101C848 101 835 101 822 101C809 101 796 101 782.8 101C769.7 101 756.3 101 743.2 101C730 101 717 101 704 101C691 101 678 101 665 101C652 101 639 101 626 101C613 101 600 101 587 101C574 101 561 101 548 101C535 101 522 101 509 101C496 101 483 101 469.8 101C456.7 101 443.3 101 430.2 101C417 101 404 101 391 101C378 101 365 101 352 101C339 101 326 101 313 101C300 101 287 101 274 101C261 101 248 101 235 101C222 101 209 101 196 101C183 101 170 101 156.8 101C143.7 101 130.3 101 117.2 101C104 101 91 101 78 101C65 101 52 101 39 101C26 101 13 101 6.5 101L0 101Z" fill="#310066"></path><path d="M0 74L6.5 72.2C13 70.3 26 66.7 39 64.8C52 63 65 63 78 64.5C91 66 104 69 117.2 70.3C130.3 71.7 143.7 71.3 156.8 69.7C170 68 183 65 196 65C209 65 222 68 235 69.2C248 70.3 261 69.7 274 68.3C287 67 300 65 313 65.7C326 66.3 339 69.7 352 70.3C365 71 378 69 391 69.2C404 69.3 417 71.7 430.2 71.8C443.3 72 456.7 70 469.8 70.5C483 71 496 74 509 75.3C522 76.7 535 76.3 548 73.8C561 71.3 574 66.7 587 66.3C600 66 613 70 626 70.5C639 71 652 68 665 68.5C678 69 691 73 704 72.7C717 72.3 730 67.7 743.2 67C756.3 66.3 769.7 69.7 782.8 72C796 74.3 809 75.7 822 75.8C835 76 848 75 861 73.7C874 72.3 887 70.7 893.5 69.8L900 69L900 101L893.5 101C887 101 874 101 861 101C848 101 835 101 822 101C809 101 796 101 782.8 101C769.7 101 756.3 101 743.2 101C730 101 717 101 704 101C691 101 678 101 665 101C652 101 639 101 626 101C613 101 600 101 587 101C574 101 561 101 548 101C535 101 522 101 509 101C496 101 483 101 469.8 101C456.7 101 443.3 101 430.2 101C417 101 404 101 391 101C378 101 365 101 352 101C339 101 326 101 313 101C300 101 287 101 274 101C261 101 248 101 235 101C222 101 209 101 196 101C183 101 170 101 156.8 101C143.7 101 130.3 101 117.2 101C104 101 91 101 78 101C65 101 52 101 39 101C26 101 13 101 6.5 101L0 101Z" fill="#3a086e"></path><path d="M0 69L6.5 69C13 69 26 69 39 70C52 71 65 73 78 73.3C91 73.7 104 72.3 117.2 73.2C130.3 74 143.7 77 156.8 78.7C170 80.3 183 80.7 196 78.7C209 76.7 222 72.3 235 72.2C248 72 261 76 274 77C287 78 300 76 313 74.7C326 73.3 339 72.7 352 72.3C365 72 378 72 391 73.2C404 74.3 417 76.7 430.2 78C443.3 79.3 456.7 79.7 469.8 79.7C483 79.7 496 79.3 509 78.7C522 78 535 77 548 77.2C561 77.3 574 78.7 587 78C600 77.3 613 74.7 626 73.5C639 72.3 652 72.7 665 74C678 75.3 691 77.7 704 77.7C717 77.7 730 75.3 743.2 73.7C756.3 72 769.7 71 782.8 71.3C796 71.7 809 73.3 822 74.7C835 76 848 77 861 77.3C874 77.7 887 77.3 893.5 77.2L900 77L900 101L893.5 101C887 101 874 101 861 101C848 101 835 101 822 101C809 101 796 101 782.8 101C769.7 101 756.3 101 743.2 101C730 101 717 101 704 101C691 101 678 101 665 101C652 101 639 101 626 101C613 101 600 101 587 101C574 101 561 101 548 101C535 101 522 101 509 101C496 101 483 101 469.8 101C456.7 101 443.3 101 430.2 101C417 101 404 101 391 101C378 101 365 101 352 101C339 101 326 101 313 101C300 101 287 101 274 101C261 101 248 101 235 101C222 101 209 101 196 101C183 101 170 101 156.8 101C143.7 101 130.3 101 117.2 101C104 101 91 101 78 101C65 101 52 101 39 101C26 101 13 101 6.5 101L0 101Z" fill="#431276"></path><path d="M0 82L6.5 81.8C13 81.7 26 81.3 39 79.7C52 78 65 75 78 73.5C91 72 104 72 117.2 72.3C130.3 72.7 143.7 73.3 156.8 75.3C170 77.3 183 80.7 196 81.8C209 83 222 82 235 81.2C248 80.3 261 79.7 274 79.5C287 79.3 300 79.7 313 79.3C326 79 339 78 352 76.8C365 75.7 378 74.3 391 74.8C404 75.3 417 77.7 430.2 78.2C443.3 78.7 456.7 77.3 469.8 76.3C483 75.3 496 74.7 509 74.8C522 75 535 76 548 77.2C561 78.3 574 79.7 587 79.7C600 79.7 613 78.3 626 77C639 75.7 652 74.3 665 75.3C678 76.3 691 79.7 704 81.5C717 83.3 730 83.7 743.2 83.5C756.3 83.3 769.7 82.7 782.8 81.5C796 80.3 809 78.7 822 77.2C835 75.7 848 74.3 861 75.3C874 76.3 887 79.7 893.5 81.3L900 83L900 101L893.5 101C887 101 874 101 861 101C848 101 835 101 822 101C809 101 796 101 782.8 101C769.7 101 756.3 101 743.2 101C730 101 717 101 704 101C691 101 678 101 665 101C652 101 639 101 626 101C613 101 600 101 587 101C574 101 561 101 548 101C535 101 522 101 509 101C496 101 483 101 469.8 101C456.7 101 443.3 101 430.2 101C417 101 404 101 391 101C378 101 365 101 352 101C339 101 326 101 313 101C300 101 287 101 274 101C261 101 248 101 235 101C222 101 209 101 196 101C183 101 170 101 156.8 101C143.7 101 130.3 101 117.2 101C104 101 91 101 78 101C65 101 52 101 39 101C26 101 13 101 6.5 101L0 101Z" fill="#4c1b7f"></path><path d="M0 82L6.5 82.7C13 83.3 26 84.7 39 85.3C52 86 65 86 78 84.7C91 83.3 104 80.7 117.2 79.8C130.3 79 143.7 80 156.8 80.3C170 80.7 183 80.3 196 81.2C209 82 222 84 235 85C248 86 261 86 274 85.2C287 84.3 300 82.7 313 81.5C326 80.3 339 79.7 352 79.2C365 78.7 378 78.3 391 79.5C404 80.7 417 83.3 430.2 83.5C443.3 83.7 456.7 81.3 469.8 80.7C483 80 496 81 509 82.2C522 83.3 535 84.7 548 84C561 83.3 574 80.7 587 79.7C600 78.7 613 79.3 626 80.8C639 82.3 652 84.7 665 85.8C678 87 691 87 704 86.3C717 85.7 730 84.3 743.2 83.3C756.3 82.3 769.7 81.7 782.8 81.8C796 82 809 83 822 82.8C835 82.7 848 81.3 861 81.8C874 82.3 887 84.7 893.5 85.8L900 87L900 101L893.5 101C887 101 874 101 861 101C848 101 835 101 822 101C809 101 796 101 782.8 101C769.7 101 756.3 101 743.2 101C730 101 717 101 704 101C691 101 678 101 665 101C652 101 639 101 626 101C613 101 600 101 587 101C574 101 561 101 548 101C535 101 522 101 509 101C496 101 483 101 469.8 101C456.7 101 443.3 101 430.2 101C417 101 404 101 391 101C378 101 365 101 352 101C339 101 326 101 313 101C300 101 287 101 274 101C261 101 248 101 235 101C222 101 209 101 196 101C183 101 170 101 156.8 101C143.7 101 130.3 101 117.2 101C104 101 91 101 78 101C65 101 52 101 39 101C26 101 13 101 6.5 101L0 101Z" fill="#542388"></path><path d="M0 85L6.5 85.3C13 85.7 26 86.3 39 86.8C52 87.3 65 87.7 78 87.5C91 87.3 104 86.7 117.2 86.3C130.3 86 143.7 86 156.8 86.2C170 86.3 183 86.7 196 86.8C209 87 222 87 235 87C248 87 261 87 274 86.3C287 85.7 300 84.3 313 84.3C326 84.3 339 85.7 352 86.3C365 87 378 87 391 87.5C404 88 417 89 430.2 89.3C443.3 89.7 456.7 89.3 469.8 89.2C483 89 496 89 509 88.5C522 88 535 87 548 87.2C561 87.3 574 88.7 587 88.5C600 88.3 613 86.7 626 85.7C639 84.7 652 84.3 665 85.2C678 86 691 88 704 88C717 88 730 86 743.2 85.7C756.3 85.3 769.7 86.7 782.8 87C796 87.3 809 86.7 822 86.5C835 86.3 848 86.7 861 86.5C874 86.3 887 85.7 893.5 85.3L900 85L900 101L893.5 101C887 101 874 101 861 101C848 101 835 101 822 101C809 101 796 101 782.8 101C769.7 101 756.3 101 743.2 101C730 101 717 101 704 101C691 101 678 101 665 101C652 101 639 101 626 101C613 101 600 101 587 101C574 101 561 101 548 101C535 101 522 101 509 101C496 101 483 101 469.8 101C456.7 101 443.3 101 430.2 101C417 101 404 101 391 101C378 101 365 101 352 101C339 101 326 101 313 101C300 101 287 101 274 101C261 101 248 101 235 101C222 101 209 101 196 101C183 101 170 101 156.8 101C143.7 101 130.3 101 117.2 101C104 101 91 101 78 101C65 101 52 101 39 101C26 101 13 101 6.5 101L0 101Z" fill="#5d2b90"></path><path d="M0 92L6.5 91.7C13 91.3 26 90.7 39 90.3C52 90 65 90 78 89.8C91 89.7 104 89.3 117.2 89.3C130.3 89.3 143.7 89.7 156.8 90.2C170 90.7 183 91.3 196 91C209 90.7 222 89.3 235 89.2C248 89 261 90 274 90.7C287 91.3 300 91.7 313 92C326 92.3 339 92.7 352 92C365 91.3 378 89.7 391 88.8C404 88 417 88 430.2 88.2C443.3 88.3 456.7 88.7 469.8 89.2C483 89.7 496 90.3 509 90.7C522 91 535 91 548 90.8C561 90.7 574 90.3 587 90C600 89.7 613 89.3 626 89.2C639 89 652 89 665 89.3C678 89.7 691 90.3 704 90.2C717 90 730 89 743.2 89.3C756.3 89.7 769.7 91.3 782.8 91.7C796 92 809 91 822 90.3C835 89.7 848 89.3 861 89.2C874 89 887 89 893.5 89L900 89L900 101L893.5 101C887 101 874 101 861 101C848 101 835 101 822 101C809 101 796 101 782.8 101C769.7 101 756.3 101 743.2 101C730 101 717 101 704 101C691 101 678 101 665 101C652 101 639 101 626 101C613 101 600 101 587 101C574 101 561 101 548 101C535 101 522 101 509 101C496 101 483 101 469.8 101C456.7 101 443.3 101 430.2 101C417 101 404 101 391 101C378 101 365 101 352 101C339 101 326 101 313 101C300 101 287 101 274 101C261 101 248 101 235 101C222 101 209 101 196 101C183 101 170 101 156.8 101C143.7 101 130.3 101 117.2 101C104 101 91 101 78 101C65 101 52 101 39 101C26 101 13 101 6.5 101L0 101Z" fill="#663399"></path></svg>