<svg width="1920" height="1080" viewBox="0 0 1920 1080" fill="none" xmlns="http://www.w3.org/2000/svg">
<g id="waves_bg_about 1" clip-path="url(#clip0_3_2)">
<path id="background" d="M1920 0H0V1080H1920V0Z" fill="#001220"/>
<path id="wave_7" d="M0 577L40 581.8C80 586.7 160 596.3 240 604C320 611.7 400 617.3 480 614.8C560 612.3 640 601.7 720 595.7C800 589.7 880 588.3 960 588.5C1040 588.7 1120 590.3 1200 589.5C1280 588.7 1360 585.3 1440 584.8C1520 584.3 1600 586.7 1680 586C1760 585.3 1840 581.7 1880 579.8L1920 578V1081H1880C1840 1081 1760 1081 1680 1081C1600 1081 1520 1081 1440 1081C1360 1081 1280 1081 1200 1081C1120 1081 1040 1081 960 1081C880 1081 800 1081 720 1081C640 1081 560 1081 480 1081C400 1081 320 1081 240 1081C160 1081 80 1081 40 1081H0V577Z" fill="black"/>
<path id="wave_6" d="M0 673L40 668.3C80 663.7 160 654.3 240 652.3C320 650.3 400 655.7 480 655.8C560 656 640 651 720 650C800 649 880 652 960 652.8C1040 653.7 1120 652.3 1200 650.2C1280 648 1360 645 1440 653.7C1520 662.3 1600 682.7 1680 693.3C1760 704 1840 705 1880 705.5L1920 706V1081H1880C1840 1081 1760 1081 1680 1081C1600 1081 1520 1081 1440 1081C1360 1081 1280 1081 1200 1081C1120 1081 1040 1081 960 1081C880 1081 800 1081 720 1081C640 1081 560 1081 480 1081C400 1081 320 1081 240 1081C160 1081 80 1081 40 1081H0V673Z" fill="#1C0053"/>
<path id="wave_5" d="M0 723L40 727.5C80 732 160 741 240 748.3C320 755.7 400 761.3 480 764C560 766.7 640 766.3 720 765.7C800 765 880 764 960 758C1040 752 1120 741 1200 738.2C1280 735.3 1360 740.7 1440 744.8C1520 749 1600 752 1680 752.7C1760 753.3 1840 751.7 1880 750.8L1920 750V1081H1880C1840 1081 1760 1081 1680 1081C1600 1081 1520 1081 1440 1081C1360 1081 1280 1081 1200 1081C1120 1081 1040 1081 960 1081C880 1081 800 1081 720 1081C640 1081 560 1081 480 1081C400 1081 320 1081 240 1081C160 1081 80 1081 40 1081H0V723Z" fill="#2B0060"/>
<path id="wave_4" d="M0 786L40 792.5C80 799 160 812 240 811.8C320 811.7 400 798.3 480 793.5C560 788.7 640 792.3 720 800.8C800 809.3 880 822.7 960 825.8C1040 829 1120 822 1200 815.3C1280 808.7 1360 802.3 1440 802.5C1520 802.7 1600 809.3 1680 808.7C1760 808 1840 800 1880 796L1920 792V1081H1880C1840 1081 1760 1081 1680 1081C1600 1081 1520 1081 1440 1081C1360 1081 1280 1081 1200 1081C1120 1081 1040 1081 960 1081C880 1081 800 1081 720 1081C640 1081 560 1081 480 1081C400 1081 320 1081 240 1081C160 1081 80 1081 40 1081H0V786Z" fill="#3A086E"/>
<path id="wave_3" d="M0 850L40 854.3C80 858.7 160 867.3 240 875.8C320 884.3 400 892.7 480 894.2C560 895.7 640 890.3 720 890.5C800 890.7 880 896.3 960 896.7C1040 897 1120 892 1200 884C1280 876 1360 865 1440 858.7C1520 852.3 1600 850.7 1680 851.2C1760 851.7 1840 854.3 1880 855.7L1920 857V1081H1880C1840 1081 1760 1081 1680 1081C1600 1081 1520 1081 1440 1081C1360 1081 1280 1081 1200 1081C1120 1081 1040 1081 960 1081C880 1081 800 1081 720 1081C640 1081 560 1081 480 1081C400 1081 320 1081 240 1081C160 1081 80 1081 40 1081H0V850Z" fill="#49187C"/>
<path id="wave_2" d="M0 974L40 971C80 968 160 962 240 956.8C320 951.7 400 947.3 480 943.3C560 939.3 640 935.7 720 935C800 934.3 880 936.7 960 938.2C1040 939.7 1120 940.3 1200 941.7C1280 943 1360 945 1440 943.7C1520 942.3 1600 937.7 1680 938.8C1760 940 1840 947 1880 950.5L1920 954V1081H1880C1840 1081 1760 1081 1680 1081C1600 1081 1520 1081 1440 1081C1360 1081 1280 1081 1200 1081C1120 1081 1040 1081 960 1081C880 1081 800 1081 720 1081C640 1081 560 1081 480 1081C400 1081 320 1081 240 1081C160 1081 80 1081 40 1081H0V974Z" fill="#57268A"/>
<path id="wave_1" d="M0 996L40 1003C80 1010 160 1024 240 1026.7C320 1029.3 400 1020.7 480 1016.3C560 1012 640 1012 720 1014.3C800 1016.7 880 1021.3 960 1018.5C1040 1015.7 1120 1005.3 1200 1001C1280 996.7 1360 998.3 1440 1004C1520 1009.7 1600 1019.3 1680 1024.2C1760 1029 1840 1029 1880 1029H1920V1081H1880C1840 1081 1760 1081 1680 1081C1600 1081 1520 1081 1440 1081C1360 1081 1280 1081 1200 1081C1120 1081 1040 1081 960 1081C880 1081 800 1081 720 1081C640 1081 560 1081 480 1081C400 1081 320 1081 240 1081C160 1081 80 1081 40 1081H0V996Z" fill="#663399"/>
</g>
<defs>
<clipPath id="clip0_3_2">
<rect width="1920" height="1080" fill="white"/>
</clipPath>
</defs>
</svg>
