<svg id="visual" viewBox="0 0 1024 300" width="1024" height="300" xmlns="http://www.w3.org/2000/svg" xmlns:xlink="http://www.w3.org/1999/xlink" version="1.1"><rect x="0" y="0" width="1024" height="300" fill="#000000"></rect><path d="M0 84L39 84L39 117L79 117L79 158L118 158L118 164L158 164L158 61L197 61L197 83L236 83L236 168L276 168L276 111L315 111L315 85L354 85L354 125L394 125L394 108L433 108L433 80L473 80L473 144L512 144L512 141L551 141L551 135L591 135L591 59L630 59L630 108L670 108L670 157L709 157L709 179L748 179L748 127L788 127L788 165L827 165L827 104L866 104L866 156L906 156L906 53L945 53L945 147L985 147L985 187L1024 187L1024 50L1024 0L1024 0L985 0L985 0L945 0L945 0L906 0L906 0L866 0L866 0L827 0L827 0L788 0L788 0L748 0L748 0L709 0L709 0L670 0L670 0L630 0L630 0L591 0L591 0L551 0L551 0L512 0L512 0L473 0L473 0L433 0L433 0L394 0L394 0L354 0L354 0L315 0L315 0L276 0L276 0L236 0L236 0L197 0L197 0L158 0L158 0L118 0L118 0L79 0L79 0L39 0L39 0L0 0Z" fill="#663399" stroke-linecap="square" stroke-linejoin="miter"></path></svg>